<mxfile host="65bd71144e">
    <diagram id="XHAsOWtQa-3Bsp9leL0Z" name="PÃ¡gina-1">
        <mxGraphModel dx="662" dy="461" grid="1" gridSize="10" guides="1" tooltips="1" connect="1" arrows="1" fold="1" page="1" pageScale="1" pageWidth="827" pageHeight="1169" math="0" shadow="0">
            <root>
                <mxCell id="0"/>
                <mxCell id="1" parent="0"/>
                <mxCell id="11" value="" style="edgeStyle=none;html=1;" edge="1" parent="1" source="2" target="3">
                    <mxGeometry relative="1" as="geometry"/>
                </mxCell>
                <mxCell id="2" value="INICIO" style="ellipse;whiteSpace=wrap;html=1;fontSize=18;fontStyle=1;fontFamily=Verdana;fillColor=#d80073;fontColor=#ffffff;strokeColor=#A50040;" vertex="1" parent="1">
                    <mxGeometry x="260" y="40" width="120" height="80" as="geometry"/>
                </mxCell>
                <mxCell id="12" value="" style="edgeStyle=none;html=1;" edge="1" parent="1" source="3" target="4">
                    <mxGeometry relative="1" as="geometry"/>
                </mxCell>
                <mxCell id="3" value="h" style="shape=parallelogram;perimeter=parallelogramPerimeter;whiteSpace=wrap;html=1;fixedSize=1;fontFamily=Verdana;fontSize=18;fontStyle=1;fillColor=#a20025;fontColor=#ffffff;strokeColor=#6F0000;" vertex="1" parent="1">
                    <mxGeometry x="260" y="160" width="120" height="60" as="geometry"/>
                </mxCell>
                <mxCell id="13" value="" style="edgeStyle=none;html=1;" edge="1" parent="1" source="4" target="5">
                    <mxGeometry relative="1" as="geometry"/>
                </mxCell>
                <mxCell id="4" value="q = h/5&lt;br&gt;n = 0" style="rounded=0;whiteSpace=wrap;html=1;fontSize=18;fontStyle=1;fontFamily=Verdana;fillColor=#6a00ff;fontColor=#ffffff;strokeColor=#3700CC;" vertex="1" parent="1">
                    <mxGeometry x="260" y="280" width="120" height="60" as="geometry"/>
                </mxCell>
                <mxCell id="14" value="" style="edgeStyle=none;html=1;" edge="1" parent="1" source="5" target="8">
                    <mxGeometry relative="1" as="geometry"/>
                </mxCell>
                <mxCell id="17" value="" style="edgeStyle=none;html=1;" edge="1" parent="1" source="5" target="9">
                    <mxGeometry relative="1" as="geometry">
                        <Array as="points">
                            <mxPoint x="520" y="440"/>
                        </Array>
                    </mxGeometry>
                </mxCell>
                <mxCell id="5" value="h&amp;gt; = q" style="rhombus;whiteSpace=wrap;html=1;fontSize=18;fontFamily=Verdana;fontStyle=1;fillColor=#1ba1e2;fontColor=#ffffff;strokeColor=#006EAF;" vertex="1" parent="1">
                    <mxGeometry x="265" y="390" width="110" height="100" as="geometry"/>
                </mxCell>
                <mxCell id="16" value="" style="edgeStyle=none;html=1;" edge="1" parent="1" source="8">
                    <mxGeometry relative="1" as="geometry">
                        <mxPoint x="320" y="360" as="targetPoint"/>
                        <Array as="points">
                            <mxPoint x="320" y="720"/>
                            <mxPoint x="200" y="720"/>
                            <mxPoint x="200" y="360"/>
                        </Array>
                    </mxGeometry>
                </mxCell>
                <mxCell id="8" value="h= 0.9 h&lt;br&gt;n= n+1" style="rounded=0;whiteSpace=wrap;html=1;fontStyle=1;fontSize=18;fontFamily=Verdana;fillColor=#008a00;fontColor=#ffffff;strokeColor=#005700;" vertex="1" parent="1">
                    <mxGeometry x="260" y="560" width="120" height="80" as="geometry"/>
                </mxCell>
                <mxCell id="18" value="" style="edgeStyle=none;html=1;exitX=0.508;exitY=0.863;exitDx=0;exitDy=0;exitPerimeter=0;" edge="1" parent="1" source="9" target="10">
                    <mxGeometry relative="1" as="geometry"/>
                </mxCell>
                <mxCell id="9" value="n" style="shape=document;whiteSpace=wrap;html=1;boundedLbl=1;fillColor=#d80073;fontColor=#ffffff;strokeColor=#A50040;fontSize=18;fontStyle=1;fontFamily=Verdana;" vertex="1" parent="1">
                    <mxGeometry x="460" y="470" width="120" height="80" as="geometry"/>
                </mxCell>
                <mxCell id="10" value="FIN" style="ellipse;whiteSpace=wrap;html=1;fillColor=#a20025;fontColor=#ffffff;strokeColor=#6F0000;fontSize=18;fontFamily=Verdana;fontStyle=1" vertex="1" parent="1">
                    <mxGeometry x="460" y="600" width="120" height="80" as="geometry"/>
                </mxCell>
                <mxCell id="19" value="F" style="text;html=1;strokeColor=none;fillColor=none;align=center;verticalAlign=middle;whiteSpace=wrap;rounded=0;fontFamily=Verdana;fontSize=18;fontStyle=1" vertex="1" parent="1">
                    <mxGeometry x="410" y="410" width="60" height="30" as="geometry"/>
                </mxCell>
            </root>
        </mxGraphModel>
    </diagram>
</mxfile>